<svg xmlns="http://www.w3.org/2000/svg" width="54" height="54" viewBox="0 0 54 54">
  <defs>
    <style>
      .cls-1 {
        fill: #c3dbea;
        fill-rule: evenodd;
      }
    </style>
  </defs>
  <path id="Forme_10" data-name="Forme 10" class="cls-1" d="M2235.11,2250.5h-13.65a7.968,7.968,0,0,0-7.96,7.96v13.65a7.966,7.966,0,0,0,7.96,7.95h13.65a7.964,7.964,0,0,0,7.95-7.95v-13.65A7.966,7.966,0,0,0,2235.11,2250.5Zm-6.83,23.88a9.1,9.1,0,1,1,9.1-9.1A9.092,9.092,0,0,1,2228.28,2274.38Zm9.78-17.66a1.215,1.215,0,1,1,1.21-1.21A1.208,1.208,0,0,1,2238.06,2256.72Zm-9.78,2.88a5.685,5.685,0,1,0,5.69,5.68A5.689,5.689,0,0,0,2228.28,2259.6ZM2228,2238a27,27,0,1,0,27,27A27,27,0,0,0,2228,2238Zm18.48,34.11a11.382,11.382,0,0,1-11.37,11.37h-13.65a11.376,11.376,0,0,1-11.37-11.37v-13.65a11.369,11.369,0,0,1,11.37-11.37h13.65a11.376,11.376,0,0,1,11.37,11.37v13.65Z" transform="translate(-2201 -2238)"/>
</svg>
