<svg xmlns="http://www.w3.org/2000/svg" width="54" height="54" viewBox="0 0 54 54">
  <defs>
    <style>
      .cls-1 {
        fill: #c3dbea;
        fill-rule: evenodd;
      }
    </style>
  </defs>
  <path id="Snapchat_icon_" data-name="Snapchat icon " class="cls-1" d="M2140,2238a27,27,0,1,0,27,27A27,27,0,0,0,2140,2238Zm14.75,34.95c-0.17.41-.97,1-3.75,1.43a1.039,1.039,0,0,0-.45.95c-0.05.23-.1,0.45-0.17,0.68a0.371,0.371,0,0,1-.4.3h-0.03a4.523,4.523,0,0,1-.63-0.08,8.536,8.536,0,0,0-1.67-.18,8.246,8.246,0,0,0-1.21.11,5.812,5.812,0,0,0-2.29,1.17,6.442,6.442,0,0,1-3.96,1.57,1.77,1.77,0,0,1-.23-0.01c-0.05,0-.1.01-0.15,0.01a6.5,6.5,0,0,1-3.97-1.57,5.947,5.947,0,0,0-2.29-1.17,6.974,6.974,0,0,0-1.21-.1,7.835,7.835,0,0,0-1.67.18,3.312,3.312,0,0,1-.62.09,0.393,0.393,0,0,1-.44-0.31c-0.07-.23-0.12-0.46-0.17-0.68a1.094,1.094,0,0,0-.45-0.96c-2.78-.43-3.58-1.01-3.75-1.43a0.607,0.607,0,0,1-.05-0.18,0.333,0.333,0,0,1,.27-0.33c4.27-.7,6.19-5.07,6.27-5.26l0.01-.01a1.637,1.637,0,0,0,.15-1.37,2.894,2.894,0,0,0-1.88-1.2c-0.16-.05-0.31-0.1-0.43-0.14-1.26-.5-1.37-1.01-1.32-1.28a1.2,1.2,0,0,1,1.16-.75,0.842,0.842,0,0,1,.35.07,3.781,3.781,0,0,0,1.52.4,1.27,1.27,0,0,0,.91-0.29c-0.01-.29-0.03-0.59-0.05-0.9-0.13-2.03-.29-4.54.35-5.97a7.755,7.755,0,0,1,7.19-4.64h0.6a7.737,7.737,0,0,1,7.19,4.64c0.64,1.43.48,3.95,0.36,5.97l-0.01.09c-0.02.28-.03,0.55-0.05,0.81a1.225,1.225,0,0,0,.83.29,3.827,3.827,0,0,0,1.44-.4,1.13,1.13,0,0,1,.45-0.09,1.492,1.492,0,0,1,.51.1h0.01a0.957,0.957,0,0,1,.72.77c0,0.3-.22.74-1.33,1.18-0.12.05-.27,0.09-0.43,0.14a2.894,2.894,0,0,0-1.88,1.2,1.637,1.637,0,0,0,.15,1.37c0.01,0,.01.01,0.01,0.02,0.08,0.18,2,4.55,6.28,5.26a0.315,0.315,0,0,1,.26.32A0.534,0.534,0,0,1,2154.75,2272.95Z" transform="translate(-2113 -2238)"/>
</svg>
