<svg xmlns="http://www.w3.org/2000/svg" width="54" height="54" viewBox="0 0 54 54">
  <metadata>
    <?xpacket begin="﻿" id="W5M0MpCehiHzreSzNTczkc9d"?>
      <x:xmpmeta xmlns:x="adobe:ns:meta/" x:xmptk="Adobe XMP Core 5.6-c142 79.160924, 2017/07/13-01:06:39        ">
        <rdf:RDF xmlns:rdf="http://www.w3.org/1999/02/22-rdf-syntax-ns#">
          <rdf:Description rdf:about=""/>
        </rdf:RDF>
      </x:xmpmeta>
    <?xpacket end="w"?>
  </metadata>
  <defs>
    <style>
      .cls-1 {
        fill: #c3dbea;
        fill-rule: evenodd;
      }
    </style>
  </defs>
  <path id="Youtube" class="cls-1" d="M2139,1726a27,27,0,1,0,27,27A27,27,0,0,0,2139,1726Zm9.99,38.01c-4.73.32-15.26,0.32-19.99,0-5.12-.36-5.71-2.86-5.75-11.01,0.04-8.17.64-10.66,5.75-11.01,4.73-.32,15.26-0.32,19.99,0,5.12,0.35,5.72,2.86,5.76,11.01C2154.71,1761.16,2154.11,1763.65,2148.99,1764.01Zm-14.49-16.28,11.06,5.26-11.06,5.28v-10.54Z" transform="translate(-2112 -1726)"/>
</svg>
