<svg xmlns="http://www.w3.org/2000/svg" width="54" height="54" viewBox="0 0 54 54">
  <metadata>
    <?xpacket begin="﻿" id="W5M0MpCehiHzreSzNTczkc9d"?>
      <x:xmpmeta xmlns:x="adobe:ns:meta/" x:xmptk="Adobe XMP Core 5.6-c142 79.160924, 2017/07/13-01:06:39        ">
        <rdf:RDF xmlns:rdf="http://www.w3.org/1999/02/22-rdf-syntax-ns#">
          <rdf:Description rdf:about=""/>
        </rdf:RDF>
      </x:xmpmeta>
    <?xpacket end="w"?>
  </metadata>
  <defs>
    <style>
      .cls-1 {
        fill: #c3dbea;
        fill-rule: evenodd;
      }
    </style>
  </defs>
  <path id="Twitter" class="cls-1" d="M2051,1725a27,27,0,1,0,27,27A27,27,0,0,0,2051,1725Zm13.65,21.7c0.41,9.09-6.37,19.22-18.37,19.22a18.331,18.331,0,0,1-9.91-2.9,13.009,13.009,0,0,0,9.57-2.68,6.488,6.488,0,0,1-6.04-4.48,6.632,6.632,0,0,0,2.92-.11,6.484,6.484,0,0,1-5.18-6.42,6.44,6.44,0,0,0,2.93.8,6.462,6.462,0,0,1-2-8.63,18.291,18.291,0,0,0,13.32,6.76,6.466,6.466,0,0,1,11.01-5.9,12.879,12.879,0,0,0,4.1-1.57,6.452,6.452,0,0,1-2.84,3.58,12.74,12.74,0,0,0,3.71-1.02A12.988,12.988,0,0,1,2064.65,1746.7Z" transform="translate(-2024 -1725)"/>
</svg>
